<svg xmlns="http://www.w3.org/2000/svg" viewBox="0 0 1920 1080">
  <g>
    <linearGradient id="Path_56_1_" gradientUnits="userSpaceOnUse" x1="-74.0689" y1="1080.5685" x2="-73.2018" y2="1081.37" gradientTransform="matrix(1535.7852 0 0 -903.2076 114138.1016 976610.125)">
      <stop  offset="0" style="stop-color:#56A9DE;stop-opacity:0.271"/>
      <stop  offset="1" style="stop-color:#234D70;stop-opacity:0.361"/>
    </linearGradient>
    <path id="Path_56" style="fill:url(#Path_56_1_);" d="M245.979,0c0,0-208.372,13.53-233.095,191.875C-0.067,376.371,209,365,247,536
      c37,130,226,136,226,136s114,1,153,110c33,92,179.099,194.901,334,198c157.484,2.046,277-70,312-97c73-61,123-147,157.956-297.962
      C1453,489,1486,308,1620,248c50-20,98.69-43.463,133.382-81.514C1802,116,1795.552,47.552,1734-14
      c-90.316-110.469-495.606,14-495.606,14H245.979z"/>
    <linearGradient id="Path_57_1_" gradientUnits="userSpaceOnUse" x1="-74.072" y1="1080.5625" x2="-73.199" y2="1081.3694" gradientTransform="matrix(1522.5181 0 0 -900.9162 113163.6328 974125.4375)">
      <stop  offset="0" style="stop-color:#56A9DE"/>
      <stop  offset="1" style="stop-color:#165285"/>
    </linearGradient>
    <path id="Path_57_2_" style="fill:url(#Path_57_1_);" d="M1625.836,237.555c330.254-130.935,31.969-306.848,31.969-306.848
      L1258.383,0H256.619c0,0-210.335,13.067-235.29,185.38C8.262,363.63,217.403,366.01,250.678,519.301
      C285.139,654.771,466.954,663.09,466.954,663.09S587,668,628,760c45,112,140.791,188.289,301.215,209.674
      C1090,991,1252,889,1252,889s121-74,167-304C1453.49,412.552,1499,287,1625.836,237.555z"/>
  </g>
  <g transform="translate(-1058.049 -71.92)">
    <path fill="#edebef" d="M1689.889 221.871h466.979a7 7 0 017 7v342.033a7 7 0 01-7 7h-466.979a7 7 0 01-7-7V228.871a7 7 0 017-7z"/>
    <path fill="#454854" d="M1689.979 221.871h466.8a7.09 7.09 0 017.09 7.09v51.137h-480.98v-51.137a7.09 7.09 0 017.09-7.09z"/>
    <circle cx="1715.314" cy="250.984" r="9.704" fill="#d5483d"/>
    <circle cx="1745.641" cy="250.984" r="9.704" fill="#f6cc19"/>
    <circle cx="1775.361" cy="250.984" r="9.704" fill="#65b145"/>
    <path fill="#181b1d" d="M1822.646 241.28h275.972a9.401 9.401 0 010 18.802h-275.972a9.401 9.401 0 010-18.802z"/>
  </g>
  <g transform="translate(111.129 381.62)">
    <path fill="none" stroke="#a4a3a4" stroke-linecap="round" stroke-linejoin="round" stroke-width="3" d="M1008.076 126.946v100.205"/>
    <path fill="#63addf" d="M1050.375 21.856a6.272 6.272 0 016.272 6.272v5.097a6.272 6.272 0 11-12.544 0v-5.097a6.273 6.273 0 016.272-6.272z"/>
    <path fill="#e59d75" d="M1002.025 236.22c-.445 1.11-3.479 7.919-3.479 7.919l9.8 3.735 2.925-9.73-9.246-1.924zM1058.159 226.594l2.016 7.438-8.825 4.316-5.819-6.055 12.628-5.699z"/>
    <path fill="#d28c6a" d="M1045.51 84.069c-1.006 1.162-9.338 11.157-9.935 11.947-.597.79-24.991 8.2-26.277 8.548s-5.911 2.356-7.214 2.356-5.482-1.383-7.214-1.1-7.258 3.519-6.725 4.809c.533 1.29 60.2-3.018 60.2-3.018l6.5-20.242-9.335-3.3z"/>
    <path fill="none" stroke="#e0e0e0" stroke-linecap="round" stroke-linejoin="round" stroke-width="2" d="M1057.213 177.449l-15.161 78.099"/>
    <path fill="#e0e0e0" d="M1113.082 50.009h34.289l-32.517 127.44h-62.842v-8.3l35.186-23.364 25.884-95.776z"/>
    <path fill="#63addf" d="M1042.064 170.139c1.739 3.555 16.431 53.457 16.812 56.358-1.872 1.964-9.987 6.332-13.453 6.616-5.871-4.621-22.322-43.422-22.322-43.422s5.602-32.192 18.963-19.552z"/>
    <path fill="#7bc0ea" d="M1112.814 122.602c1.274 1.515 5.4 23.873 6.011 29.656.942 9.089-16.679 22.4-41.554 22.4-8.211 0-35.4-1.831-43.209-4.781-.4 4.941-20.094 66.569-22.326 68.8-3.667.958-9.089-1.034-10.444-2.4-1.355-1.366 9.41-86.507 12.423-92.005s64.417-9.63 64.417-9.63l34.682-12.04z"/>
    <path fill="#fdc78e" d="M1070.189 58.786c11.53 6.729-5.711 36.12-7.891 36.869-3.475-.4-15.573-7.474-17.842-12.68-.488-3.198 15.887-29.94 25.733-24.189z"/>
    <path fill="#ffd98e" d="M1076.577 46.587c19.272 0 37.831 73.575 37.07 76.52-1.559 6.039-33.13 17.084-38.2 12.339-12.812-11.99-36.437-88.859 1.13-88.859z"/>
    <path fill="none" stroke="#e0e0e0" stroke-linecap="round" stroke-linejoin="round" stroke-width="2" d="M1111.23 177.449l15.161 78.099"/>
    <path d="M1009.09 248.17l-5.029 12.688-27.151-12.1 2.7-5.434 19.829.589 9.651 4.257zM1060.338 233.114l6.673 11.906-26.518 13.433-2.513-5.526 12.968-15.008 9.39-4.805z"/>
    <path fill="#d28c6a" d="M1072.012 38.483c.437 2.437 3.206 9.782 4.408 11.129s-5.27 9.217-12.467 7.775c-.216-2.473-1.07-9.474-2.2-10.636s10.259-8.268 10.259-8.268z"/>
    <ellipse cx="1059.382" cy="27.53" fill="#e59d75" rx="14.894" ry="20.229" transform="rotate(-18.053 1059.462 27.514)"/>
    <path fill="#f4826a" d="M1047.526-.009c7.983 0 28.5 14.183 28.5 28.454 0 7.658-1.354 9.618-1.867 9.618-.513 0-5.466-3.843-5.466-6.6s-.974-6.845-1.924-6.845c-1.6 0-1.839 1.783-5.871 1.783-1.543 0-4.44-1.839-4.44-3.951-3.274.056-3.274 1.138-7.767 1.138-5.09 0-17.593-2.573-17.593-6.524 0-2.677 3.491-4.521 6.929-3.867-2.328-1.246-4.408-3.819-4.408-5.522 0-2.384 3.006-4.032 5.334-4.032a9.593 9.593 0 016.332 2.3c-.953-1.648-.019-5.952 2.241-5.952z"/>
    <circle cx="1066.13" cy="28.625" r="4.14" fill="#e59d75"/>
    <path fill="#a4a3a4" d="M842.889 121.123h207.835v5.827H842.889z"/>
    <path fill="#e0e0e0" d="M1032.847 111.657h-172.3l-17.657 9.414h207.619l-17.662-9.414z"/>
    <path fill="none" stroke="#a4a3a4" stroke-linecap="round" stroke-linejoin="round" stroke-width="3" d="M869.062 126.946V249.16M885.533 126.946v100.205M1024.551 126.946V249.16"/>
    <path fill="#a4a3a4" d="M965.46 112.311h36.849v2.525H965.46zM919.349 109.169h7.053v8.396h-7.053z"/>
    <ellipse cx="992.768" cy="116.109" fill="#f2f2f3" rx="8.264" ry="3.863"/>
    <path fill="#e59d75" d="M1051.385 88.085c-1.2 1.31-8.56 11.89-9.354 13.009-16.832 1.964-39.074 7.362-39.891 7.39-.817.028-10.171-3-11.426-2.781s-3.819 4.717-3.711 5.643c.108.926 7.474 5.374 15.954 5.262 1.6-.108 2.128-.982 3.791-.982 1.663 0 39.675 2.938 46.271-.509 3.587-1.88 13.666-16.054 13.666-17.116s-15.3-9.916-15.3-9.916z"/>
    <path fill="#ffe4ad" d="M1075.378 62.214c11.526 6.729-5.711 36.12-7.891 36.869-3.479-.4-15.573-7.474-17.846-12.68-.492-3.195 15.887-29.937 25.737-24.189z"/>
    <path fill="#e0e0e0" d="M913.37 4.976h3.378v108.753h-3.378z"/>
    <path fill="#a4a3a4" d="M916.744 4.976v108.753l15.974-5.843V10.815l-15.974-5.839z"/>
    <path fill="#63addf" d="M1065.813 21.856a6.272 6.272 0 016.272 6.272v5.097a6.272 6.272 0 11-12.544 0v-5.097a6.272 6.272 0 016.272-6.272z"/>
    <path fill="none" stroke="#63addf" stroke-linecap="round" stroke-linejoin="round" stroke-width="6" d="M1066.132 24.08c0-2.224.769-15.325-6.588-19.192"/>
    <path fill="none" stroke="#a4a3a4" stroke-linecap="round" stroke-linejoin="round" stroke-width="6" d="M1065.812 39.497c0 1.278-.5 8.528-6.011 8.528"/>
  </g>
  <g transform="translate(-500 0)">
    <path d="M1144.233 353.659c8.162.434 19.841 6.9 19.841 18.184s-11.758 15.708-22.322 17.548c7.166 8.542 10.105 10.194 9.371 13.869s-7.349 13.78-7.891 25.355-31.969 75.231-37.936 77.071c-5.967 1.84 5.8 13.612-35.362 14.934-10.973 0-30.884-16.275-30.884-37.483-.493-46.227 47.553-55 74.27-106.574 12.26-23.673 27.125-23.111 30.913-22.904z"/>
    <path fill="#e59d75" d="M1244.05 612.215l9.977-5.76 7.067 12.251-9.977 5.755-7.067-12.246zM1169.74 635.36l10.392 5-6.076 12.73-10.4-4.966 6.084-12.764z"/>
    <path fill="#63addf" d="M1227.528 527.341c10.11 0 24.98 60.589 31.372 78.353-1.337 3.719-8.922 9.509-13.084 9.509-8.029-13.454-26.016-42.3-29.212-46.755-2.56-3.551.814-41.107 10.924-41.107z"/>
    <path fill="#7bc0ea" d="M1111.578 516.21c-8.764 0-15.984-1.889-15.984 18.741s22.519 37.813 49.245 37.813 38.553-.71 40.989-1.3c.72 6.821-15.032 53.56-16.724 65.594 1.208 3.216 9.025 7.22 12.33 7.22 3.305 0 47.267-71.409 46.123-115.535.153-6.9-25.246-8.813-41.295-8.813-16.049 0-50.207 1.849-54.527 1.849"/>
    <path fill="#ffd98e" d="M1098.652 518.237c-1.115-4.592-7.122-103.264 28.916-101.5 36.038 1.764 35.663 89.688 31.563 103.566-16.447 6.964-59.3 2.782-60.479-2.066z"/>
    <path fill="#d08b64" d="M1139.725 408.906c-.567 1.346-3.625 8.517-4.192 11.447s-16.058-.774-15.19-2.239c5.129-8.66 5.968-17.755 6.8-22.307.765-4.163 16.335 4.182 12.582 13.099z"/>
    <path fill="#e59d75" d="M1135.277 466.876l-22.233 2.367c-1.514 1.864-.858 6.273-.883 8.542-.1 8.384.276 17.755 5.346 24.817 1.973 2.747 5.2 5.425 8.384 5.381 4.981 1.973 13.291 4.246 13.291 4.246l12.611 2.782s21.276 3.773 31.781 3.526c3.5-.089 7.053-.493 10.544-.395 2.027.054 5.243.686 7.136 0 .552-.2.419-1.42.286-1.9-.454-1.672-2.052-2.846-3.521-3.576-3.413-1.7-5.346-.621-8.848-.562-2.865.049-6.283-1.411-11.255-3.359-5.864-2.3-12.552-5.1-18.529-7.117-6.811-2.293-13.76-4.769-20.408-7.492-1.312-.538-2.708-.927-4.084-1.356a71.935 71.935 0 001.065-10.85 65.557 65.557 0 00-.36-11.975c-.146-.998.096-2.152-.323-3.079z"/>
    <path fill="#ffe4ad" d="M1107.125 469.855c-3.783-10.051-.493-41.467 11.787-43.524 17.084-2.535 22.194 37.157 20.5 41.8-3.021 1.812-19.953 7.814-32.287 1.724z"/>
    <path fill="#e59d75" d="M1157.994 375.019a51.44 51.44 0 01-33.956 14.194 4.236 4.236 0 00-.917 2.619 4.438 4.438 0 003.793 4.37c1.1 6.722 4.656 11.989 9.893 13.582 8.384 2.555 17.957-5.312 21.35-17.572a29.412 29.412 0 00-.163-17.193z"/>
    <path fill="#fdc88e" d="M1171.063 519.193c8.877 0 40.935-.256 46.819-.256"/>
    <path fill="none" stroke="#9c9c9c" stroke-linecap="round" stroke-linejoin="round" stroke-width="5.79" d="M1165.578 519.608c9.371 0 41.714-.764 47.08-.764 4.163-6.411 23.5-40.185 24.773-42.74"/>
    <path d="M1165.179 645.007l-6.767 12.931 34.42 18.012 1.919-3.664-17.045-20.714-12.527-6.565zM1249.021 621.17l7.521 12.507 33.3-20.019-2.131-3.546-26.563 3.768-12.127 7.29z"/>
  </g>
</svg>
