<?xml version="1.0" standalone="no"?>
<!DOCTYPE svg PUBLIC "-//W3C//DTD SVG 20010904//EN"
 "http://www.w3.org/TR/2001/REC-SVG-20010904/DTD/svg10.dtd">
<svg version="1.0" xmlns="http://www.w3.org/2000/svg"
 width="700.000000pt" height="700.000000pt" viewBox="0 0 700.000000 700.000000"
 preserveAspectRatio="xMidYMid meet">
<metadata>
Created by potrace 1.11, written by Peter Selinger 2001-2013
</metadata>
<g transform="translate(0.000000,700.000000) scale(0.100000,-0.100000)"
fill="#000000" stroke="none">
<path d="M3238 6965 c-2 -2 -35 -7 -73 -10 -75 -6 -131 -12 -174 -20 -14 -2
-42 -7 -61 -10 -69 -11 -196 -37 -255 -52 -33 -8 -67 -16 -75 -18 -8 -2 -61
-18 -118 -35 -290 -87 -643 -254 -897 -423 -781 -522 -1315 -1321 -1494 -2232
-20 -106 -47 -304 -56 -420 -6 -80 -6 -422 0 -475 2 -19 6 -69 10 -110 11
-136 47 -344 90 -520 22 -93 96 -323 106 -335 5 -5 9 -15 9 -23 0 -39 166
-388 261 -551 45 -76 179 -276 214 -320 8 -9 37 -45 65 -81 96 -121 236 -270
376 -400 66 -61 249 -210 292 -237 15 -10 29 -20 32 -24 8 -10 198 -131 275
-176 261 -151 598 -289 860 -353 129 -31 306 -68 365 -75 30 -4 62 -9 70 -10
8 -2 51 -6 95 -10 44 -3 96 -8 115 -10 92 -11 462 -4 590 10 665 73 1288 329
1805 740 156 124 333 293 452 431 l52 61 -41 33 c-22 19 -46 39 -52 45 -6 5
-40 34 -76 63 -79 65 -71 58 -255 211 -82 69 -152 128 -155 131 -3 3 -70 59
-150 125 -80 66 -156 129 -169 141 l-23 21 -137 -136 c-442 -442 -998 -675
-1611 -675 -236 0 -412 26 -646 94 -674 197 -1232 719 -1479 1384 -40 110
-101 338 -110 413 -3 27 -7 59 -10 71 -9 51 -19 194 -19 297 0 105 12 303 19
315 1 3 6 25 9 50 18 133 82 369 127 466 10 24 19 45 19 48 0 3 20 48 45 101
159 334 414 640 720 862 333 241 728 387 1140 420 602 48 1183 -138 1645 -525
95 -79 256 -241 286 -288 9 -13 20 -24 24 -24 7 0 293 226 570 450 19 15 109
87 200 160 91 72 166 134 168 138 4 13 -173 211 -291 326 -185 180 -395 341
-622 479 -225 136 -491 257 -740 337 -91 29 -304 84 -365 95 -14 2 -68 11
-120 20 -52 9 -120 19 -150 21 -30 3 -66 8 -80 11 -29 7 -596 14 -602 8z"/>
<path d="M6240 5255 c-96 -63 -229 -148 -295 -190 -445 -282 -537 -345 -527
-358 11 -14 64 -106 89 -154 9 -18 21 -33 26 -33 5 0 250 120 543 267 l534
266 -44 81 c-60 112 -136 236 -144 235 -4 0 -86 -51 -182 -114z"/>
<path d="M6645 4681 c-55 -21 -282 -106 -505 -190 -223 -83 -412 -155 -420
-158 -8 -3 -17 -7 -20 -7 -3 -1 -20 -8 -38 -15 -38 -16 -38 -5 5 -148 23 -75
31 -92 45 -87 9 2 25 6 35 8 10 2 88 22 173 44 234 62 464 121 565 147 252 64
369 95 373 100 8 8 -97 345 -107 344 -3 0 -51 -17 -106 -38z"/>
<path d="M6880 4002 c-27 -3 -342 -51 -376 -57 -12 -2 -48 -7 -80 -10 -33 -4
-68 -9 -79 -11 -38 -8 -70 -13 -120 -19 -27 -3 -75 -10 -105 -15 -30 -5 -75
-12 -100 -15 -76 -10 -234 -35 -257 -40 -13 -3 -20 -11 -18 -22 3 -21 17 -157
20 -193 l1 -25 110 1 c107 1 379 10 604 20 184 8 319 13 409 15 l84 2 -7 101
c-3 55 -8 110 -10 121 -2 11 -7 50 -10 87 -8 71 -5 68 -66 60z"/>
<path d="M5759 3328 c-1 -26 -3 -54 -14 -153 -4 -38 -5 -67 -1 -64 4 4 25 3
47 -2 21 -5 56 -12 77 -15 32 -4 82 -13 177 -28 14 -3 33 -7 43 -10 9 -2 37
-7 62 -10 25 -3 54 -8 65 -10 11 -2 40 -7 65 -11 25 -4 54 -9 65 -11 35 -7
309 -53 350 -59 22 -4 47 -8 55 -10 8 -2 35 -7 60 -10 25 -3 60 -10 77 -15 18
-4 35 -5 37 -2 2 4 7 31 11 61 4 30 8 62 10 72 6 28 18 150 19 189 1 32 -1 35
-29 36 -28 1 -94 6 -295 19 -110 8 -203 13 -310 20 -52 3 -120 7 -150 10 -68
5 -195 13 -322 20 -97 6 -98 6 -99 -17z"/>
<path d="M5649 2780 l-37 -111 37 -15 c20 -9 77 -31 126 -51 557 -219 876
-346 903 -358 18 -8 38 -15 45 -15 10 0 70 144 82 198 2 9 13 45 24 79 l19 63
-41 11 c-23 5 -55 15 -72 20 -27 8 -547 153 -735 204 -8 2 -46 13 -85 24 -81
23 -223 61 -227 61 -2 0 -19 -50 -39 -110z"/>
<path d="M5454 2353 c-27 -48 -50 -90 -52 -93 -1 -4 55 -44 125 -91 70 -46
292 -192 493 -324 201 -133 370 -244 375 -247 10 -6 41 42 132 197 51 88 51
90 -4 118 -27 13 -73 38 -103 54 -30 17 -127 67 -215 113 -88 45 -173 90 -190
100 -28 16 -97 53 -382 201 -62 33 -116 59 -121 59 -5 0 -31 -39 -58 -87z"/>
</g>
</svg>
