<?xml version="1.0" standalone="no"?>
<!DOCTYPE svg PUBLIC "-//W3C//DTD SVG 20010904//EN"
 "http://www.w3.org/TR/2001/REC-SVG-20010904/DTD/svg10.dtd">
<svg version="1.0" xmlns="http://www.w3.org/2000/svg"
 width="824.000000pt" height="824.000000pt" viewBox="0 0 824.000000 824.000000"
 preserveAspectRatio="xMidYMid meet">
<metadata>
Created by potrace 1.11, written by Peter Selinger 2001-2013
</metadata>
<g transform="translate(0.000000,824.000000) scale(0.100000,-0.100000)"
fill="#000000" stroke="none">
<path d="M3908 8215 c-2 -2 -48 -6 -103 -9 -55 -3 -111 -8 -125 -10 -14 -3
-43 -7 -65 -10 -75 -10 -189 -27 -205 -31 -3 0 -27 -4 -55 -9 -27 -4 -77 -14
-110 -23 -33 -8 -71 -17 -85 -20 -34 -6 -172 -42 -190 -50 -8 -3 -20 -7 -27
-9 -55 -11 -276 -91 -418 -151 -144 -60 -380 -177 -407 -201 -10 -8 -18 -12
-18 -9 0 6 -98 -53 -235 -141 -97 -62 -312 -225 -420 -317 -49 -42 -157 -146
-240 -230 -154 -156 -162 -165 -229 -250 -22 -27 -48 -57 -58 -66 -10 -9 -18
-20 -18 -24 0 -6 -24 -37 -72 -95 -25 -29 -157 -227 -214 -321 -92 -151 -236
-441 -302 -609 -56 -144 -148 -422 -158 -480 -3 -14 -10 -43 -16 -65 -5 -22
-12 -51 -14 -64 -3 -12 -11 -51 -19 -85 -7 -33 -16 -79 -20 -101 -3 -23 -8
-52 -11 -65 -6 -32 -11 -71 -19 -145 -4 -33 -8 -71 -11 -85 -24 -146 -24 -666
1 -845 2 -16 6 -50 9 -75 5 -44 8 -63 21 -153 6 -40 18 -103 30 -157 3 -14 8
-38 11 -55 14 -81 82 -332 107 -400 6 -16 12 -34 14 -40 7 -35 105 -289 145
-375 86 -185 202 -403 234 -440 7 -8 14 -19 15 -25 3 -14 32 -59 44 -67 6 -5
6 -8 0 -8 -7 0 -6 -3 0 -8 6 -4 33 -41 60 -82 46 -70 132 -189 145 -200 3 -3
24 -30 47 -60 78 -101 207 -243 327 -359 50 -47 102 -98 117 -113 15 -16 30
-28 33 -28 3 0 24 -17 45 -37 22 -21 52 -47 67 -58 15 -11 32 -25 39 -31 6 -6
51 -41 100 -78 83 -62 77 -50 -10 19 -59 46 -348 335 -381 380 -16 22 -31 42
-34 45 -36 35 -193 261 -240 345 -61 109 -106 191 -106 195 -1 3 -11 25 -23
49 -38 74 -127 301 -160 411 -18 58 -37 119 -42 136 -5 17 -12 44 -14 60 -3
16 -14 67 -25 114 -24 105 -30 134 -36 185 -2 22 -6 51 -9 65 -43 216 -49 744
-11 1020 3 19 7 53 10 75 10 69 18 129 22 150 2 11 7 40 10 65 3 25 10 53 15
63 6 9 8 17 5 17 -2 0 1 19 6 43 5 23 12 53 14 67 3 14 18 77 35 140 17 63 32
123 34 134 8 34 123 370 155 451 172 433 415 870 690 1241 84 113 108 144 201
253 30 36 64 77 75 90 25 33 370 378 414 416 47 41 150 127 173 145 10 8 33
27 50 42 18 15 35 28 38 28 3 0 16 9 28 19 12 11 48 37 79 58 31 21 59 41 62
44 10 11 132 89 140 89 5 0 10 4 12 8 2 4 62 42 133 83 174 100 346 184 490
238 33 13 74 29 90 36 17 7 88 32 160 54 111 36 174 53 280 77 44 10 172 34
200 38 36 4 120 16 155 22 160 25 509 22 715 -7 39 -6 77 -10 85 -11 8 0 44
-7 80 -14 36 -8 76 -17 90 -19 22 -3 146 -32 178 -41 7 -2 14 -4 17 -4 3 -1
20 -7 40 -16 19 -8 35 -11 35 -8 0 4 6 1 14 -5 8 -7 23 -14 34 -16 11 -2 48
-15 81 -28 34 -14 61 -21 61 -17 0 5 -131 63 -150 65 -3 0 -15 6 -27 13 -13 7
-23 10 -23 6 0 -3 -6 -2 -12 4 -24 19 -393 132 -508 156 -43 9 -74 15 -120 25
-25 6 -58 13 -75 15 -16 3 -43 7 -60 10 -63 12 -96 17 -142 22 -27 2 -68 7
-93 10 -25 3 -74 8 -110 11 -75 5 -537 12 -542 8z"/>
<path d="M5427 7854 c-1 -1 -54 -4 -117 -7 -63 -3 -126 -8 -140 -12 -14 -3
-41 -8 -60 -11 -19 -3 -53 -10 -75 -15 -22 -5 -51 -11 -65 -14 -27 -4 -196
-52 -220 -62 -8 -3 -19 -7 -25 -8 -75 -18 -413 -174 -559 -259 -136 -79 -139
-80 -150 -89 -6 -5 -45 -30 -86 -58 -41 -27 -86 -57 -100 -66 -35 -24 -214
-157 -220 -163 -3 -3 -34 -28 -69 -55 -35 -28 -75 -61 -90 -75 -15 -14 -42
-38 -61 -54 -155 -128 -452 -428 -625 -631 -27 -32 -57 -66 -65 -74 -8 -9 -36
-44 -63 -78 -26 -34 -53 -68 -60 -75 -7 -7 -44 -56 -82 -108 -38 -52 -72 -97
-75 -100 -22 -21 -227 -335 -310 -475 -95 -161 -244 -445 -233 -445 5 0 3 -4
-3 -8 -23 -15 -256 -593 -268 -667 -1 -5 -9 -30 -19 -55 -17 -47 -41 -135 -36
-135 1 0 -3 -10 -10 -23 -7 -13 -14 -32 -16 -42 -2 -10 -14 -54 -26 -97 -12
-43 -26 -94 -30 -113 -4 -19 -13 -55 -19 -80 -7 -25 -14 -56 -16 -69 -3 -12
-11 -51 -19 -85 -8 -34 -17 -79 -20 -101 -4 -22 -8 -48 -11 -57 -6 -20 -9 -38
-23 -128 -6 -36 -13 -81 -16 -100 -3 -20 -7 -54 -10 -75 -2 -22 -4 -40 -5 -40
-4 0 -25 -223 -36 -370 -14 -208 -3 -594 22 -755 3 -19 7 -50 9 -67 4 -31 17
-107 30 -163 3 -14 8 -38 11 -55 3 -16 10 -48 16 -70 11 -43 14 -54 18 -70 33
-134 188 -473 240 -525 3 -3 20 -27 39 -55 39 -56 39 -56 119 -140 67 -70 155
-145 171 -145 6 0 11 -4 11 -9 0 -5 7 -12 16 -15 15 -6 15 -4 3 11 -8 10 -22
26 -31 37 -35 38 -112 220 -110 259 0 9 -2 17 -6 17 -4 0 -8 10 -8 23 -1 12
-4 36 -8 52 -6 30 -12 68 -21 128 -26 170 -22 572 10 862 12 109 12 117 20
170 4 28 9 64 10 80 2 17 4 30 5 30 3 0 13 88 14 118 0 15 3 27 7 27 4 0 6 11
4 25 -1 14 3 25 9 25 6 0 4 5 -4 10 -8 5 -10 10 -4 10 16 0 23 34 11 55 -6 12
-6 16 1 11 5 -3 12 8 16 27 3 17 8 46 11 62 2 17 7 41 10 55 3 14 8 41 11 60
3 19 10 49 14 65 5 17 11 41 14 55 3 14 8 36 11 50 3 14 8 36 11 50 2 14 7 32
10 40 3 8 8 26 10 39 3 14 14 58 26 100 11 41 21 80 22 86 1 5 5 16 9 23 5 6
6 12 3 12 -3 0 1 19 10 41 8 23 16 51 18 63 2 12 16 57 31 101 15 44 28 87 30
95 3 14 49 156 62 190 3 8 8 24 10 34 2 11 8 25 13 31 5 7 7 15 3 18 -3 4 -2
7 4 7 5 0 10 6 10 14 0 13 29 91 102 271 20 50 35 93 34 97 -1 3 4 12 12 18 8
7 15 18 15 25 0 7 12 39 27 71 15 33 28 61 28 64 1 9 188 385 194 390 3 3 17
25 30 50 14 25 48 85 78 133 29 49 53 90 53 93 0 3 5 10 10 17 16 18 100 148
100 153 0 3 5 10 10 17 6 7 47 64 91 127 120 169 341 458 419 545 15 17 67 75
115 130 129 146 152 170 351 369 185 186 212 211 349 331 44 39 86 76 94 84
39 36 317 255 406 319 55 39 105 75 110 79 10 8 145 95 251 161 28 18 56 32
62 32 5 0 12 4 14 8 3 7 271 144 293 149 6 1 48 16 95 33 93 35 88 33 190 55
14 3 36 8 50 11 44 9 195 5 224 -6 16 -6 31 -8 34 -6 3 3 -6 10 -19 15 -13 5
-46 19 -74 31 -69 30 -181 66 -235 76 -8 2 -31 6 -50 10 -61 13 -295 35 -303
28z"/>
<path d="M5790 7856 c0 -2 9 -6 20 -9 11 -3 18 -1 14 4 -5 9 -34 13 -34 5z"/>
<path d="M6092 7655 c-18 -8 -40 -21 -48 -30 -9 -8 -19 -15 -24 -15 -12 0
-198 -185 -266 -265 -32 -38 -61 -72 -64 -75 -5 -4 -123 -151 -153 -190 -7 -9
-32 -42 -57 -75 -24 -33 -48 -64 -53 -70 -4 -5 -32 -44 -62 -85 -30 -41 -61
-84 -70 -95 -8 -11 -38 -51 -65 -90 -27 -38 -53 -75 -57 -80 -4 -6 -30 -44
-58 -85 -27 -41 -52 -77 -55 -80 -10 -10 -190 -279 -190 -285 0 -2 -7 -13 -15
-22 -14 -17 -148 -221 -249 -380 -27 -43 -70 -109 -94 -148 -25 -38 -55 -86
-67 -105 -12 -19 -35 -55 -51 -80 -16 -25 -31 -49 -34 -55 -3 -5 -39 -65 -80
-133 -41 -67 -85 -139 -97 -160 -12 -20 -25 -42 -30 -48 -12 -15 -29 -44 -54
-89 -11 -22 -34 -59 -50 -83 -16 -24 -29 -45 -29 -47 0 -2 -22 -40 -50 -85
-27 -45 -50 -83 -50 -85 0 -2 -25 -45 -55 -96 -30 -50 -55 -94 -55 -96 0 -3
-8 -17 -19 -31 -10 -15 -36 -58 -57 -97 -21 -38 -50 -90 -66 -114 -15 -25 -28
-50 -28 -57 0 -7 -4 -14 -8 -16 -4 -1 -62 -100 -127 -218 -66 -118 -122 -217
-125 -220 -3 -3 -17 -27 -31 -55 -53 -105 -83 -160 -88 -165 -4 -3 -20 -32
-37 -65 -17 -33 -47 -89 -66 -125 -74 -137 -332 -632 -347 -665 -5 -11 -65
-135 -134 -275 -126 -258 -181 -375 -305 -650 -11 -25 -38 -90 -61 -145 -23
-55 -50 -120 -61 -145 -56 -133 -148 -392 -170 -480 -6 -25 -14 -52 -17 -60
-3 -8 -7 -19 -7 -25 -1 -5 -6 -35 -10 -65 -5 -30 -10 -73 -11 -95 -2 -43 18
-94 38 -97 36 -4 43 -3 55 5 6 5 12 7 12 3 0 -30 267 217 360 333 19 24 45 54
58 67 12 13 22 27 22 33 0 5 4 11 9 13 27 10 446 577 626 848 17 25 34 50 38
55 27 34 300 453 304 468 3 9 9 17 13 17 5 0 12 9 15 20 3 11 12 26 18 32 15
16 156 240 323 513 68 110 128 205 133 212 6 7 11 14 11 17 0 3 32 57 70 121
39 64 79 130 89 148 24 42 169 288 181 307 5 8 53 92 107 185 54 94 106 184
116 200 9 17 20 38 23 48 4 9 11 17 16 17 5 0 7 4 3 9 -3 5 2 16 10 24 8 9 15
18 15 20 0 3 39 74 86 159 48 84 100 178 116 208 53 100 89 164 109 197 12 18
17 33 12 33 -4 0 -3 4 3 8 6 4 17 21 26 37 8 17 43 82 77 145 34 63 74 140 89
170 14 30 29 57 32 60 3 3 48 91 100 195 52 105 99 193 103 196 5 3 8 9 7 13
0 4 31 70 69 148 39 77 71 147 71 154 0 7 3 14 8 16 7 3 46 75 48 87 0 3 26
59 57 125 31 65 57 120 57 122 0 1 15 35 34 76 31 69 61 134 91 203 18 40 79
189 81 195 1 7 13 37 34 85 54 123 158 442 177 541 4 21 8 74 8 117 0 66 -3
81 -19 93 -24 17 -42 17 -84 -1z"/>
<path d="M6230 7626 c0 -3 13 -19 30 -37 16 -18 39 -53 52 -78 13 -25 26 -48
29 -51 10 -9 51 -135 65 -199 3 -14 7 -27 9 -31 2 -4 7 -29 11 -56 3 -27 8
-58 10 -69 5 -23 14 -103 19 -172 13 -152 1 -546 -21 -718 -4 -27 -8 -63 -9
-80 -2 -30 -13 -109 -21 -155 -4 -26 -12 -82 -19 -135 -2 -16 -5 -30 -6 -30
-1 0 -3 -9 -5 -20 -1 -11 -5 -33 -8 -50 -3 -16 -8 -43 -11 -60 -3 -16 -8 -41
-11 -55 -3 -14 -6 -34 -8 -45 -2 -11 -6 -29 -9 -40 -3 -11 -8 -31 -11 -45 -13
-73 -71 -310 -98 -404 -11 -38 -22 -77 -24 -87 -2 -11 -6 -27 -8 -36 -6 -27
-102 -324 -116 -358 -6 -16 -12 -32 -12 -35 0 -3 -4 -15 -9 -28 -5 -13 -9 -29
-9 -35 0 -7 -6 -23 -13 -37 -7 -14 -26 -63 -43 -110 -16 -47 -33 -88 -39 -92
-5 -4 -6 -8 -2 -8 4 0 2 -10 -5 -22 -6 -13 -13 -28 -14 -34 -1 -6 -9 -27 -17
-45 -9 -19 -28 -63 -42 -99 -35 -86 -88 -204 -95 -210 -3 -3 -6 -12 -8 -20 -4
-17 -174 -363 -183 -370 -3 -3 -23 -39 -45 -80 -21 -41 -43 -79 -47 -85 -4 -5
-41 -64 -82 -130 -42 -66 -81 -129 -88 -140 -6 -10 -30 -45 -52 -76 -22 -31
-47 -67 -55 -79 -8 -12 -21 -28 -27 -36 -7 -7 -13 -15 -13 -18 0 -3 -24 -37
-52 -75 -29 -38 -62 -81 -72 -95 -11 -15 -30 -38 -43 -52 -12 -14 -23 -28 -23
-32 0 -4 -12 -20 -28 -37 -15 -16 -47 -55 -72 -85 -25 -30 -49 -60 -55 -66 -5
-6 -30 -35 -55 -64 -105 -122 -278 -307 -431 -460 -117 -117 -176 -172 -364
-345 -62 -56 -257 -220 -274 -229 -9 -5 -27 -19 -41 -32 -14 -13 -61 -51 -105
-84 -44 -33 -84 -63 -90 -68 -57 -46 -352 -242 -365 -242 -5 0 -10 -4 -10 -9
0 -5 -10 -13 -22 -17 -13 -3 -30 -12 -38 -19 -8 -7 -51 -31 -95 -55 -44 -23
-84 -47 -90 -51 -5 -5 -17 -9 -26 -9 -10 0 -19 -4 -21 -8 -6 -16 -282 -125
-344 -137 -10 -2 -19 -4 -19 -5 0 -2 -13 -4 -75 -14 -52 -9 -149 -10 -200 -2
l-45 6 60 -25 c33 -14 68 -30 77 -35 10 -6 25 -10 33 -10 9 0 14 -3 12 -7 -3
-5 5 -8 16 -9 21 -1 72 -11 72 -14 0 -1 9 -4 20 -6 19 -4 36 -7 108 -20 17 -3
64 -7 102 -9 39 -2 70 -5 70 -5 0 -2 99 -2 105 -1 3 1 43 4 89 6 46 2 91 7
100 9 15 5 88 17 121 20 9 1 21 5 28 10 6 4 12 5 12 3 0 -3 33 4 73 14 39 11
79 21 87 23 29 8 175 56 195 65 11 5 47 19 80 32 33 12 75 31 93 41 17 10 32
15 32 13 0 -6 280 137 337 171 17 10 56 33 86 51 67 39 344 224 373 249 12 11
57 45 100 77 44 31 95 70 114 87 19 16 40 33 45 37 15 11 147 124 167 143 9 8
44 40 79 70 82 73 333 324 435 436 177 193 409 486 520 654 27 41 57 84 67 94
9 11 17 26 17 33 0 7 5 13 10 13 6 0 10 4 10 10 0 5 17 36 37 67 44 68 41 62
132 228 62 111 221 428 221 440 0 2 16 37 35 78 19 41 35 80 35 86 0 6 5 19
10 29 19 33 79 182 73 182 -3 0 -1 6 4 13 6 6 27 62 48 122 20 61 41 119 45
130 12 28 78 248 96 320 1 6 14 55 29 109 14 55 23 106 21 113 -3 8 -2 12 3 9
8 -5 27 77 23 97 -1 4 3 7 9 7 5 0 8 4 5 8 -3 5 1 36 9 70 8 34 17 79 20 99 2
21 7 49 10 63 2 13 7 42 10 65 4 22 9 56 12 75 3 19 6 45 7 58 0 12 2 22 6 22
3 0 5 19 6 43 0 23 4 69 7 102 26 237 27 608 2 815 -9 73 -15 116 -20 140 -3
14 -8 44 -11 68 -5 36 -65 284 -77 317 -2 6 -7 24 -12 40 -4 17 -11 35 -14 40
-4 6 -13 28 -20 50 -8 22 -27 68 -42 103 -16 34 -29 65 -30 70 -1 4 -10 19
-20 34 -10 14 -19 29 -19 33 0 12 -91 148 -144 215 -57 73 -128 147 -198 208
-26 22 -44 44 -40 48 4 5 3 6 -2 2 -5 -5 -23 3 -40 15 -39 30 -56 39 -56 33z"/>
<path d="M6541 7423 c7 -11 22 -26 35 -34 75 -46 311 -279 421 -416 73 -91
186 -246 205 -283 7 -14 16 -27 19 -30 29 -22 270 -510 252 -510 -3 0 -1 -6 4
-12 17 -22 92 -251 119 -360 2 -10 6 -26 8 -35 7 -25 37 -164 42 -190 2 -13 6
-35 9 -50 3 -16 8 -48 11 -73 3 -25 7 -58 10 -75 3 -16 7 -48 10 -70 2 -22 7
-67 10 -100 10 -87 10 -553 1 -665 -17 -192 -46 -412 -66 -489 -6 -20 -12 -52
-15 -72 -3 -20 -8 -42 -10 -50 -3 -8 -7 -25 -10 -39 -5 -31 -25 -110 -33 -130
-3 -8 -7 -22 -8 -30 -1 -8 -14 -58 -29 -110 -16 -52 -29 -99 -31 -105 -1 -5
-5 -17 -8 -25 -3 -8 -13 -37 -22 -65 -36 -110 -90 -250 -100 -257 -5 -4 -7 -8
-3 -8 4 0 -4 -26 -18 -57 -14 -32 -27 -62 -28 -68 -10 -39 -172 -369 -237
-482 -26 -46 -44 -83 -41 -83 4 0 2 -4 -4 -8 -6 -4 -28 -36 -48 -72 -40 -69
-157 -252 -166 -260 -3 -3 -18 -25 -35 -50 -33 -50 -202 -278 -219 -296 -6 -6
-24 -28 -41 -49 -16 -21 -34 -43 -40 -49 -5 -6 -41 -47 -79 -91 -80 -92 -349
-361 -420 -420 -27 -22 -60 -51 -75 -65 -21 -20 -112 -93 -219 -175 -7 -5 -22
-18 -33 -27 -10 -10 -19 -15 -19 -10 0 4 -4 2 -8 -3 -9 -12 -158 -115 -167
-115 -3 0 -11 -5 -18 -10 -20 -17 -86 -59 -120 -76 -17 -9 -34 -20 -37 -23
-26 -32 -562 -281 -636 -295 -11 -2 -37 -11 -59 -19 -198 -75 -525 -143 -785
-164 -170 -14 -584 -3 -630 17 -3 1 -8 2 -12 1 -17 -2 -348 64 -378 76 -8 4
-19 5 -24 4 -4 -1 -14 4 -22 10 -8 6 -14 9 -14 5 0 -3 -17 0 -37 8 -37 14 -66
24 -81 27 -4 1 -45 17 -91 35 -47 19 -86 32 -88 30 -11 -11 397 -164 538 -201
35 -9 71 -20 79 -23 8 -3 22 -7 30 -8 8 -2 40 -10 70 -18 30 -8 66 -17 80 -20
28 -6 162 -33 200 -41 14 -2 45 -7 70 -11 25 -3 54 -7 65 -8 11 -2 49 -7 85
-11 36 -4 73 -9 82 -10 73 -14 436 -20 613 -10 170 10 200 12 315 30 19 3 51
7 70 10 38 4 175 28 275 49 29 6 268 66 280 70 6 2 13 4 17 5 4 1 65 23 135
47 71 25 133 46 138 48 6 1 19 7 30 13 11 6 23 11 28 12 4 0 23 8 43 16 20 8
38 15 39 15 2 0 39 16 82 36 295 134 541 279 793 468 52 39 97 73 100 76 3 3
46 39 95 80 225 186 558 554 705 779 8 13 27 41 43 62 15 21 27 43 27 48 0 5
4 11 8 13 29 12 247 420 337 633 88 206 214 615 240 775 3 19 8 46 10 60 14
67 14 69 31 205 3 22 7 54 10 70 32 228 36 817 5 848 -6 6 -6 19 -1 32 5 13 6
25 4 28 -3 3 -7 25 -9 48 -2 24 -6 58 -9 74 -3 17 -7 48 -11 70 -3 23 -8 52
-10 65 -3 14 -8 40 -11 59 -5 32 -7 42 -19 94 -3 12 -7 33 -10 47 -3 14 -9 40
-14 58 -5 17 -8 32 -6 32 2 0 -3 16 -11 35 -8 19 -13 36 -12 37 3 4 -33 140
-43 163 -4 11 -21 61 -38 110 -16 50 -34 104 -41 120 -7 17 -16 39 -20 50 -98
252 -248 543 -393 760 -57 85 -155 224 -167 235 -3 3 -25 32 -50 65 -25 33
-52 67 -60 75 -8 8 -40 44 -70 80 -111 130 -353 361 -503 480 -11 8 -24 20
-31 25 -43 40 -135 104 -125 88z"/>
</g>
</svg>
